<?xml version="1.0" standalone="no"?>
<!DOCTYPE svg PUBLIC "-//W3C//DTD SVG 20010904//EN"
 "http://www.w3.org/TR/2001/REC-SVG-20010904/DTD/svg10.dtd">
<svg version="1.0" xmlns="http://www.w3.org/2000/svg"
 width="260.000000pt" height="260.000000pt" viewBox="0 0 260.000000 260.000000"
 preserveAspectRatio="xMidYMid meet">
<metadata>
Created by potrace 1.11, written by Peter Selinger 2001-2013
</metadata>
<g transform="translate(0.000000,260.000000) scale(0.100000,-0.100000)"
fill="#000000" stroke="none">
<path d="M0 1300 l0 -1300 1300 0 1300 0 0 1300 0 1300 -1300 0 -1300 0 0
-1300z m1570 761 c36 -12 89 -34 119 -51 53 -30 54 -30 68 -10 49 70 159 63
200 -13 15 -27 18 -59 18 -212 0 -153 -3 -185 -18 -212 -23 -44 -70 -67 -120
-60 -56 8 -85 41 -108 123 -30 107 -101 166 -241 199 -168 39 -320 -4 -430
-124 -107 -115 -132 -206 -126 -447 3 -155 4 -161 35 -225 52 -106 150 -187
272 -225 68 -21 225 -29 306 -15 95 16 158 48 232 114 34 30 71 58 83 62 85
27 174 -70 148 -162 -16 -59 -112 -147 -210 -192 -135 -63 -200 -76 -378 -75
-138 1 -165 4 -245 28 -223 68 -367 197 -451 405 -36 90 -44 147 -44 330 0
132 4 183 20 251 65 270 259 465 525 526 84 19 261 12 345 -15z"/>
</g>
</svg>
